<?xml version="1.0" encoding="utf-8"?>
<!-- Generator: Adobe Illustrator 16.0.4, SVG Export Plug-In . SVG Version: 6.00 Build 0)  -->
<!DOCTYPE svg PUBLIC "-//W3C//DTD SVG 1.1//EN" "http://www.w3.org/Graphics/SVG/1.1/DTD/svg11.dtd">
<svg version="1.1" id="Calque_1" xmlns="http://www.w3.org/2000/svg" xmlns:xlink="http://www.w3.org/1999/xlink" x="0px" y="0px"
	 width="60px" height="60px" viewBox="0 0 60 60" enable-background="new 0 0 60 60" xml:space="preserve">
<path fill="#343434" d="M46.641,29.943c0-0.75-0.054-1.487-0.146-2.213c1.629-0.845,3.237-1.883,4.692-3.094
	c-0.238-1.058-0.632-2.069-1.015-3.081c-1.86,0.038-3.672,0.236-5.405,0.573c-0.7-1.371-1.576-2.63-2.603-3.748
	c0.794-1.603,1.39-3.26,1.883-5.071c-0.853-0.661-1.703-1.333-2.645-1.869c-1.389,1.029-2.669,2.179-3.839,3.417
	c-1.412-0.73-2.941-1.257-4.551-1.545c-0.312-1.653-0.785-3.359-1.43-4.958c-0.477-0.04-0.954-0.051-1.43-0.049h-0.001
	c-0.477-0.002-0.954,0.01-1.431,0.049c-0.645,1.599-1.118,3.305-1.428,4.957c-1.609,0.289-3.139,0.816-4.552,1.545
	c-1.17-1.236-2.449-2.387-3.838-3.416c-0.943,0.534-1.794,1.208-2.646,1.869c0.494,1.81,1.088,3.467,1.884,5.07
	c-1.026,1.117-1.903,2.377-2.603,3.749c-1.734-0.337-3.545-0.536-5.404-0.573c-0.383,1.012-0.778,2.023-1.015,3.081
	c1.454,1.211,3.063,2.249,4.692,3.093c-0.094,0.726-0.146,1.463-0.146,2.213c0,0.751,0.051,1.489,0.146,2.214
	c-1.628,0.845-3.238,1.884-4.692,3.093c0.238,1.059,0.632,2.068,1.015,3.081c1.859-0.039,3.67-0.235,5.405-0.572
	c0.7,1.368,1.578,2.63,2.603,3.746c-0.793,1.604-1.39,3.261-1.884,5.07c0.853,0.661,1.704,1.334,2.646,1.868
	c1.388-1.027,2.668-2.178,3.838-3.415c1.412,0.729,2.943,1.257,4.552,1.545c0.311,1.653,0.784,3.357,1.429,4.955
	c0.477,0.04,0.955,0.052,1.431,0.051h0.001c0.476,0.001,0.954-0.011,1.43-0.051c0.645-1.599,1.118-3.302,1.43-4.955
	c1.609-0.288,3.139-0.816,4.552-1.545c1.169,1.236,2.449,2.388,3.838,3.415c0.942-0.534,1.794-1.208,2.645-1.868
	c-0.492-1.81-1.089-3.467-1.883-5.07c1.024-1.116,1.902-2.378,2.603-3.746c1.733,0.337,3.546,0.533,5.405,0.572
	c0.383-1.013,0.776-2.024,1.015-3.081c-1.455-1.209-3.063-2.248-4.692-3.095C46.587,31.433,46.641,30.695,46.641,29.943z
	 M30.154,39.899c-5.366,0-9.717-4.46-9.717-9.957c0-5.498,4.352-9.955,9.717-9.955c5.368,0,9.719,4.458,9.719,9.955
	S35.521,39.899,30.154,39.899z"/>
</svg>
