<?xml version="1.0" encoding="utf-8"?>
<!-- Generator: Adobe Illustrator 16.0.4, SVG Export Plug-In . SVG Version: 6.00 Build 0)  -->
<!DOCTYPE svg PUBLIC "-//W3C//DTD SVG 1.1//EN" "http://www.w3.org/Graphics/SVG/1.1/DTD/svg11.dtd">
<svg version="1.1" id="Calque_1" xmlns="http://www.w3.org/2000/svg" xmlns:xlink="http://www.w3.org/1999/xlink" x="0px" y="0px"
	 width="60px" height="60px" viewBox="0 0 60 60" enable-background="new 0 0 60 60" xml:space="preserve">
<path fill="#F44336" d="M-65.5,54.5"/>
<g>
	<polygon fill="#B0191A" points="32.076,39.463 41.617,29.921 32.155,20.458 36.422,16.191 50.159,29.927 45.892,34.195 
		45.885,34.188 36.343,43.729 	"/>
	<polygon fill="#B0191A" points="39.121,10 39.121,16.298 37.719,14.896 36.422,13.6 35.126,14.896 30.859,19.162 29.563,20.458 
		30.859,21.753 39.026,29.921 30.78,38.168 29.485,39.463 30.78,40.759 35.047,45.025 36.343,46.321 37.64,45.025 39.121,43.544 
		39.121,50 9.841,50 9.841,10 	"/>
</g>
</svg>
