<?xml version="1.0" encoding="utf-8"?>
<!-- Generator: Adobe Illustrator 16.0.4, SVG Export Plug-In . SVG Version: 6.00 Build 0)  -->
<!DOCTYPE svg PUBLIC "-//W3C//DTD SVG 1.1//EN" "http://www.w3.org/Graphics/SVG/1.1/DTD/svg11.dtd">
<svg version="1.1" id="Calque_1" xmlns="http://www.w3.org/2000/svg" xmlns:xlink="http://www.w3.org/1999/xlink" x="0px" y="0px"
	 width="60px" height="60px" viewBox="0 0 60 60" enable-background="new 0 0 60 60" xml:space="preserve">
<path id="path3" fill="#B0191A" stroke="#B0191A" d="M29.999,10C18.969,10,10,18.97,10,30c0,11.03,8.969,20,19.999,20
	c11.028,0,20-8.97,20-20C49.999,18.97,41.027,10,29.999,10z M29.162,20.571c-2.132-0.083-4.213-0.449-6.188-1.123
	c1.5-2.725,3.614-5.1,6.188-7.006V20.571z M29.162,22.246v6.917h-8.833c0.109-2.882,0.778-5.652,1.93-8.196
	C24.46,21.733,26.779,22.163,29.162,22.246z M29.162,30.837v6.917c-2.385,0.086-4.709,0.513-6.912,1.286
	c-1.152-2.546-1.816-5.317-1.925-8.2h8.836V30.837z M29.162,39.428v8.154c-2.581-1.908-4.697-4.291-6.199-7.025
	C24.944,39.88,27.027,39.512,29.162,39.428z M30.837,39.424c2.164,0.076,4.273,0.449,6.285,1.133
	c-1.517,2.758-3.667,5.16-6.285,7.079V39.424z M30.837,37.75v-6.913h8.923c-0.105,2.885-0.77,5.652-1.924,8.196
	C35.605,38.254,33.253,37.826,30.837,37.75z M30.837,29.163v-6.912c2.416-0.078,4.769-0.505,6.999-1.289
	c1.154,2.544,1.818,5.315,1.924,8.201H30.837z M30.837,20.576v-8.212c2.617,1.92,4.765,4.321,6.282,7.08
	C35.11,20.128,32.999,20.5,30.837,20.576z M33.085,11.956c3.628,0.618,6.887,2.301,9.454,4.719c-1.226,0.852-2.51,1.586-3.853,2.166
	C37.291,16.237,35.4,13.897,33.085,11.956z M21.411,18.844c-1.367-0.589-2.67-1.335-3.911-2.204c2.591-2.427,5.88-4.106,9.535-4.702
	C24.711,13.882,22.812,16.23,21.411,18.844z M20.691,20.362c-1.222,2.736-1.927,5.706-2.037,8.8h-6.938
	c0.195-4.33,1.899-8.269,4.598-11.306C17.698,18.853,19.157,19.697,20.691,20.362z M18.653,30.837
	c0.106,3.093,0.809,6.071,2.028,8.802c-1.528,0.667-2.983,1.511-4.366,2.503c-2.702-3.04-4.402-6.976-4.598-11.305H18.653z
	 M21.402,41.162c1.4,2.609,3.285,4.95,5.605,6.898c-3.643-0.605-6.923-2.278-9.507-4.697C18.737,42.491,20.037,41.749,21.402,41.162
	z M38.687,41.154c1.346,0.58,2.631,1.312,3.859,2.168c-2.572,2.42-5.833,4.105-9.455,4.723C35.4,46.099,37.291,43.764,38.687,41.154
	z M39.404,39.635c1.223-2.734,1.926-5.705,2.03-8.8h6.846c-0.195,4.312-1.881,8.229-4.559,11.265
	C42.357,41.126,40.917,40.293,39.404,39.635z M41.435,29.163c-0.108-3.095-0.81-6.064-2.032-8.8c1.513-0.658,2.955-1.49,4.319-2.464
	c2.678,3.038,4.363,6.955,4.564,11.264H41.435z"/>
</svg>
