<?xml version="1.0" encoding="utf-8"?>
<!-- Generator: Adobe Illustrator 16.0.4, SVG Export Plug-In . SVG Version: 6.00 Build 0)  -->
<!DOCTYPE svg PUBLIC "-//W3C//DTD SVG 1.1//EN" "http://www.w3.org/Graphics/SVG/1.1/DTD/svg11.dtd">
<svg version="1.1" id="Calque_1" xmlns="http://www.w3.org/2000/svg" xmlns:xlink="http://www.w3.org/1999/xlink" x="0px" y="0px"
	 width="60px" height="60px" viewBox="0 0 60 60" enable-background="new 0 0 60 60" xml:space="preserve">
<g>
	<path fill="#B0191A" d="M30,10c-11.045,0-20,8.949-20,20c0,11.046,8.955,20,20,20c11.05,0,20-8.954,20-20C50,18.949,41.05,10,30,10
		z M30,45.399c-8.507,0-15.405-6.894-15.405-15.399c0-8.507,6.898-15.405,15.405-15.405c8.51,0,15.404,6.898,15.404,15.405
		C45.404,38.506,38.51,45.399,30,45.399z"/>
	<path fill="#B0191A" d="M30,18.448c-6.382,0-11.548,5.17-11.548,11.552c0,6.376,5.166,11.555,11.548,11.555
		c6.387,0,11.553-5.179,11.553-11.555C41.553,23.618,36.387,18.448,30,18.448z M30,37.5c-4.141,0-7.501-3.356-7.501-7.5
		c0-4.146,3.36-7.501,7.501-7.501c4.146,0,7.5,3.354,7.5,7.501C37.5,34.144,34.146,37.5,30,37.5z"/>
	<path fill="#B0191A" d="M33.75,30c0,2.062-1.676,3.754-3.75,3.754c-2.071,0-3.751-1.691-3.751-3.754
		c0-2.071,1.68-3.751,3.751-3.751C32.074,26.249,33.75,27.929,33.75,30z"/>
</g>
</svg>
