<?xml version="1.0" encoding="utf-8"?>
<!-- Generator: Adobe Illustrator 16.0.4, SVG Export Plug-In . SVG Version: 6.00 Build 0)  -->
<!DOCTYPE svg PUBLIC "-//W3C//DTD SVG 1.1//EN" "http://www.w3.org/Graphics/SVG/1.1/DTD/svg11.dtd">
<svg version="1.1" id="Calque_1" xmlns="http://www.w3.org/2000/svg" xmlns:xlink="http://www.w3.org/1999/xlink" x="0px" y="0px"
	 width="60px" height="60px" viewBox="0 0 60 60" enable-background="new 0 0 60 60" xml:space="preserve">
<path fill="#343434" d="M16.809,36.833c2.243-2.464,2.953-2.576,3.292-2.743c0.341-0.175,0.796-0.372,1.369-0.609
	c0.078-0.026,0.143-0.047,0.198-0.076c1.955-0.779,2.625-1.576,3.357-2.385c0.729-0.814,1.095-1.919,1.095-3.331
	c0-0.494-0.241-1.042-0.725-1.643c-0.482-0.6-0.813-1.458-0.996-2.58c-0.055-0.263-0.152-0.459-0.294-0.587
	c-0.144-0.134-0.294-0.224-0.451-0.275c-0.156-0.05-0.298-0.247-0.43-0.586c-0.13-0.341-0.221-0.845-0.276-1.526
	c0-0.34,0.046-0.633,0.137-0.882c0.093-0.248,0.188-0.413,0.295-0.492l0.156-0.077c-0.017-0.086-0.03-0.177-0.046-0.268
	c-0.18-1.06-0.312-2.004-0.385-2.822c-0.051-0.497,0.007-1.043,0.178-1.645c0.169-0.599,0.456-1.238,0.86-1.917
	c0.404-0.677,1.066-1.245,1.977-1.7c0.667-0.335,1.427-0.541,2.269-0.633C28.706,10.024,29.028,10,29.366,10
	c1.253,0,2.333,0.23,3.231,0.689c0.9,0.455,1.551,1.023,1.954,1.7c0.406,0.68,0.691,1.319,0.862,1.917
	c0.167,0.601,0.225,1.148,0.174,1.645L35.2,19.04c0.36,0.182,0.54,0.666,0.54,1.451c-0.047,0.681-0.147,1.186-0.288,1.526
	c-0.146,0.339-0.286,0.536-0.433,0.586c-0.146,0.051-0.283,0.141-0.432,0.275c-0.145,0.128-0.24,0.324-0.29,0.587
	c-0.182,1.122-0.512,1.98-0.981,2.58c-0.467,0.602-0.705,1.149-0.705,1.643c0,1.412,0.367,2.517,1.102,3.33
	c0.727,0.81,2.059,1.605,3.987,2.387c1.848,0.744,3.177,1.643,3.92,2.086c0.743,0.445,2.409,1.949,2.56,2.172
	C45.527,39.68,45.88,50,45.88,50H14.12C14.121,50,14.972,38.859,16.809,36.833z"/>
</svg>
