<?xml version="1.0" encoding="utf-8"?>
<!-- Generator: Adobe Illustrator 16.0.4, SVG Export Plug-In . SVG Version: 6.00 Build 0)  -->
<!DOCTYPE svg PUBLIC "-//W3C//DTD SVG 1.1//EN" "http://www.w3.org/Graphics/SVG/1.1/DTD/svg11.dtd">
<svg version="1.1" id="Calque_1" xmlns="http://www.w3.org/2000/svg" xmlns:xlink="http://www.w3.org/1999/xlink" x="0px" y="0px"
	 width="60px" height="60px" viewBox="0 0 60 60" enable-background="new 0 0 60 60" xml:space="preserve">
<g>
	<path fill="#343434" d="M37.219,39.783l-0.15,0.146c-1.708,1.697-4.157,2.632-6.934,2.632c-3.405,0.005-6.813-1.37-9.118-3.669
		c-2.006-2.014-3.241-5.021-3.392-8.244c-0.153-3.266,0.867-6.255,2.806-8.191l0.945-0.948l-6.988,0.625l0.226-7.227l-0.856,0.865
		c-7.63,7.627-7.337,21.815,0.62,29.769C18.484,49.647,24.269,52,30.263,52c5.301,0,10.112-1.896,13.541-5.336l0.15-0.15
		L43.6,39.815L37.219,39.783z"/>
	<path fill="#343434" d="M17.363,14.993l-0.129,4.125l3.897-0.349l4.325-0.387c1.313-0.599,2.792-0.948,4.402-0.948
		c3.411,0,6.819,1.372,9.123,3.674c4.139,4.138,4.522,11.8,0.98,15.938l3.652,0.019l2.597,0.014l0.135,2.592l0.226,4.202
		c7.283-7.701,6.899-21.583-0.938-29.417C41.529,10.353,35.742,8,29.758,8c-4.694,0-8.998,1.482-12.308,4.203L17.363,14.993z"/>
</g>
</svg>
